<?xml version="1.0" encoding="UTF-8"?>
<svg width="287pt" height="119pt" version="1.1" viewBox="0 0 287 119" xmlns="http://www.w3.org/2000/svg" xmlns:xlink="http://www.w3.org/1999/xlink">
<g enable-background="new">
<clipPath>
<path transform="scale(.24)" d="m0 0h1562.5v1593.8h-1562.5z" fill-rule="evenodd"/>
</clipPath>
<clipPath>
<path transform="scale(.24)" d="m0 0h1562.5v1562.5h-1562.5z" fill-rule="evenodd"/>
</clipPath>
<clipPath>
<path transform="scale(.24)" d="m0 0h1562.5v1562.5h-1562.5z" fill-rule="evenodd"/>
</clipPath>
<clipPath id="x">
<path transform="scale(.24)" d="m1124.4 831.13h78.125v81.25h-78.125z" fill-rule="evenodd"/>
</clipPath>
<g transform="translate(-45.162 -124.8)" clip-path="url(#x)">
<path transform="matrix(1.7494 0 0 1.7613 269.85 199.47)" d="m0 0h10.718v11.067h-10.718v-11.067" fill="#00d6c8"/>
</g>
<clipPath id="n">
<path transform="scale(.24)" d="m361.63 831.13h78.125v81.25h-78.125z" fill-rule="evenodd"/>
</clipPath>
<g transform="translate(-45.162 -124.8)" clip-path="url(#n)">
<path transform="matrix(1.7535 0 0 1.761 86.791 199.48)" d="m0 0h10.693v11.067h-10.693v-11.067" fill="#ff1616"/>
</g>
<clipPath id="m">
<path transform="scale(.24)" d="m0 0h1562.5v1562.5h-1562.5z" fill-rule="evenodd"/>
</clipPath>
<g transform="translate(-45.162 -124.8)" clip-path="url(#m)">
<symbol id="c">
<path d="m0.442 0.7c0.003333 0 6e-3 -0.001333 8e-3 -4e-3 0.002667-2e-3 4e-3 -0.004667 4e-3 -8e-3v-0.077c0-0.003333-0.001333-0.006333-4e-3 -9e-3 -2e-3 -2e-3 -0.004667-3e-3 -8e-3 -3e-3h-0.155c-0.003333 0-5e-3 -0.001667-5e-3 -5e-3v-0.582c0-0.0033333-0.001333-0.0063333-4e-3 -9e-3 -2e-3 -2e-3 -0.0046667-3e-3 -8e-3 -3e-3h-0.092c-0.003333 0-0.006333 1e-3 -9e-3 3e-3 -2e-3 0.0026667-3e-3 0.0056667-3e-3 9e-3v0.582c0 0.003333-0.001667 5e-3 -5e-3 5e-3h-0.149c-0.0033333 0-0.0063333 1e-3 -9e-3 3e-3 -2e-3 0.0026666-3e-3 0.0056666-3e-3 0.0089999v0.077c0 0.003333 1e-3 6e-3 3e-3 8e-3 0.0026667 0.002667 0.0056667 4e-3 9e-3 4e-3z"/>
</symbol>
<symbol id="a">
<path d="m0.334 0c-0.0073333 0-0.012 0.0033333-0.014 0.01l-0.108 0.287c-0.001333 0.002667-3e-3 4e-3 -5e-3 4e-3h-0.086c-0.003333 0-5e-3 -0.001667-5e-3 -5e-3v-0.284c0-0.0033333-0.001333-0.0063333-4e-3 -9e-3 -2e-3 -2e-3 -0.0046667-3e-3 -8e-3 -3e-3h-0.092c-0.0033333 0-0.0063333 1e-3 -9e-3 3e-3 -2e-3 0.0026667-3e-3 0.0056667-3e-3 9e-3v0.676c0 0.003333 1e-3 6e-3 3e-3 8e-3 0.0026667 0.002667 0.0056667 4e-3 9e-3 4e-3h0.231c0.038 0 0.071667-0.008667 0.101-0.026 0.029333-0.016667 0.052-0.040667 0.068-0.072 0.016-0.030667 0.024-0.066 0.024-0.106 0-0.043333-0.01-0.081-0.03-0.113s-0.047333-0.054667-0.082-0.068c-0.003333-0.001333-0.004333-0.003667-3e-3 -7e-3l0.118-0.294c6.6667e-4 -0.0013333 9.9998e-4 -0.0033333 1e-3 -6e-3 -2e-8 -0.0053333-0.0033334-8e-3 -0.01-8e-3h-0.096m-0.213 0.6c-0.003333 0-5e-3 -0.001667-5e-3 -5e-3v-0.199c0-0.003333 0.001667-5e-3 5e-3 -5e-3h0.105c0.028 0 0.050667 0.009333 0.068 0.028 0.017333 0.019333 0.026 0.044667 0.026 0.076 0 0.032-0.008667 0.057333-0.026 0.076-0.017333 0.019333-0.04 0.029-0.068 0.029z"/>
</symbol>
<symbol id="b">
<path d="m0.402 0c-0.007333 0-0.012 0.0033333-0.014 0.01l-0.026 0.107c-6.6665e-4 0.002667-0.002333 4e-3 -5e-3 4e-3h-0.206c-0.002667 1e-8 -0.004333-0.001333-5e-3 -4e-3l-0.025-0.107c-2e-3 -0.0066667-0.0066667-0.01-0.014-0.01h-0.095c-0.0086667 0-0.012 0.0043333-0.01 0.013l0.182 0.677c2e-3 0.006667 0.006667 0.01 0.014 0.01h0.114c0.007333 0 0.012-0.003333 0.014-0.01l0.182-0.677 1e-3 -4e-3c0-6e-3 -0.0036666-9e-3 -0.011-9e-3h-0.096m-0.232 0.218c-6.6668e-4 -2e-3 -3.3332e-4 -0.003667 9.9998e-4 -5e-3 0.001333-6.6668e-4 0.002667-1e-3 4e-3 -1e-3h0.158c0.001333 0 0.002667 3.3333e-4 4e-3 1e-3 0.001333 0.001333 0.001667 3e-3 1e-3 5e-3l-0.082 0.328c-6.6666e-4 2e-3 -0.001667 3e-3 -3e-3 3e-3s-0.002333-9.9994e-4 -3e-3 -3e-3z"/>
</symbol>
<symbol id="d">
<path d="m0.221 0c-0.044 0-0.082667 0.0076667-0.116 0.023-0.033333 0.016-0.059333 0.038333-0.078 0.067-0.018 0.029333-0.027 0.063-0.027 0.101v0.026c0 0.003333 1e-3 6e-3 3e-3 8e-3 0.0026667 0.002667 0.0056667 4e-3 9e-3 4e-3h0.09c0.003333 0 6e-3 -0.001333 8e-3 -4e-3 0.002667-2e-3 4e-3 -0.004667 4e-3 -8e-3v-0.02c-1e-8 -0.028667 0.01-0.052 0.03-0.07s0.047-0.027 0.081-0.027c0.031333-1e-8 0.055333 8e-3 0.072 0.024s0.025 0.037 0.025 0.063c0 0.018-0.004667 0.033333-0.014 0.046-0.009333 0.013333-0.022667 0.025333-0.04 0.036-0.016667 0.011333-0.042667 0.026333-0.078 0.045-0.040667 0.021333-0.073333 0.040333-0.098 0.057-0.024667 0.016667-0.045667 0.038-0.063 0.064-0.016667 0.026-0.025 0.057667-0.025 0.095 0 0.057333 0.019 0.10267 0.057 0.136 0.038667 0.033333 0.089333 0.05 0.152 0.05 0.043333 0 0.081667-0.008333 0.115-0.025 0.033333-0.016 0.059-0.039 0.077-0.069 0.018-0.03 0.027-0.064333 0.027-0.103v-0.021c0-0.003333-0.001333-0.006333-4e-3 -9e-3 -2e-3 -2e-3 -0.004667-3e-3 -8e-3 -3e-3h-0.09c-0.003333-2e-8 -0.006333 1e-3 -9e-3 3e-3 -2e-3 0.002667-3e-3 0.005667-3e-3 9e-3v0.019c0 0.028667-0.009667 0.052333-0.029 0.071-0.019333 0.018667-0.045333 0.028-0.078 0.028-0.028667 0-0.051333-0.007667-0.068-0.023-0.016667-0.014667-0.025-0.035333-0.025-0.062 0-0.018 0.004333-0.033333 0.013-0.046 0.008667-0.012667 0.021667-0.024667 0.039-0.036 0.018-0.011333 0.045-0.026 0.081-0.044 0.048-0.027333 0.083333-0.048667 0.106-0.064 0.022667-0.015333 0.041667-0.035333 0.057-0.06 0.016-0.024 0.024-0.053667 0.024-0.089 3e-8 -0.058667-0.019667-0.10533-0.059-0.14-0.039333-0.034667-0.092-0.052-0.158-0.052z"/>
</symbol>
<symbol id="h">
<path d="m0.316 0.688c0 0.003333 1e-3 6e-3 3e-3 8e-3 0.002667 0.002667 0.005667 4e-3 9e-3 4e-3h0.092c0.003333 0 6e-3 -0.001333 8e-3 -4e-3 0.002667-2e-3 4e-3 -0.004667 4e-3 -8e-3v-0.676c0-0.0033333-0.0013333-0.0063333-4e-3 -9e-3 -2e-3 -2e-3 -0.0046667-3e-3 -8e-3 -3e-3h-0.092c-0.0033333 0-0.0063333 1e-3 -9e-3 3e-3 -2e-3 0.0026667-3e-3 0.0056667-3e-3 9e-3v0.284c0 0.003333-0.001667 5e-3 -5e-3 5e-3h-0.19c-0.003333 0-5e-3 -0.001667-5e-3 -5e-3v-0.284c0-0.0033333-0.001333-0.0063333-4e-3 -9e-3 -2e-3 -2e-3 -0.0046667-3e-3 -8e-3 -3e-3h-0.092c-0.0033333 0-0.0063333 1e-3 -9e-3 3e-3 -2e-3 0.0026667-3e-3 0.0056667-3e-3 9e-3v0.676c0 0.003333 1e-3 6e-3 3e-3 8e-3 0.0026667 0.002667 0.0056667 4e-3 9e-3 4e-3h0.092c0.003333 0 6e-3 -0.001333 8e-3 -4e-3 0.002667-2e-3 4e-3 -0.004667 4e-3 -8e-3v-0.281c0-0.003333 0.001667-5e-3 5e-3 -5e-3h0.19c0.003333 5e-8 5e-3 0.001667 5e-3 5e-3z"/>
</symbol>
<use transform="matrix(67.451 0 0 -67.451 45.252 243.49)" fill="#ff1616" xlink:href="#c"/>
<use transform="matrix(67.451 0 0 -67.451 82.282 243.49)" fill="#ff1616" xlink:href="#a"/>
<use transform="matrix(67.451 0 0 -67.451 115.6 243.49)" fill="#ff1616" xlink:href="#b"/>
<use transform="matrix(67.451 0 0 -67.451 153.98 244.03)" fill="#ff1616" xlink:href="#d"/>
<use transform="matrix(67.451 0 0 -67.451 190.33 243.49)" fill="#ff1616" xlink:href="#h"/>
<use transform="matrix(67.451 0 0 -67.451 225 243.49)" fill="#00d6c8" xlink:href="#b"/>
<use transform="matrix(67.451 0 0 -67.451 265.13 243.49)" fill="#00d6c8" xlink:href="#a"/>
<use transform="matrix(67.451 0 0 -67.451 299.13 243.49)" fill="#00d6c8" xlink:href="#c"/>
</g>
<clipPath id="l">
<path transform="scale(.24)" d="m816.17 933.37h75.395v82.934h-75.395z" fill-rule="evenodd"/>
</clipPath>
<g transform="translate(-45.261 -125.29)" clip-path="url(#l)">
<path transform="matrix(.86166 0 0 .86505 194.16 223.15)" d="m5.5 23.5c-0.27604-2.48e-4 -0.51165-0.097967-0.70684-0.29316-0.19519-0.19519-0.29291-0.4308-0.29316-0.70684v-19h16v19c-2.48e-4 0.27604-0.09797 0.51166-0.29316 0.70684-0.19519 0.19519-0.4308 0.29291-0.70684 0.29316z" fill="#fff"/>
<path transform="matrix(.86166 0 0 .86505 194.16 223.15)" d="m6 1h13v1h-13z" fill="#ff1616"/>
<path transform="matrix(.86166 0 0 .86505 194.16 223.15)" d="m23 3h-21v1h2v18.5c2.248e-4 0.19884 0.038436 0.3901 0.11463 0.57376 0.076198 0.18366 0.1846 0.3458 0.3252 0.4864 0.1406 0.1406 0.30274 0.249 0.4864 0.3252 0.18366 0.076197 0.37492 0.11441 0.57376 0.11464h14c0.19884-2.27e-4 0.3901-0.03844 0.57376-0.11464 0.18366-0.0762 0.3458-0.1846 0.4864-0.3252 0.1406-0.1406 0.249-0.30274 0.3252-0.4864 0.076199-0.18366 0.11441-0.37492 0.11464-0.57376v-18.5h2zm-3 19.5c-1.65e-4 0.138-0.04904 0.2558-0.14662 0.35338-0.097582 0.097581-0.21538 0.14646-0.35338 0.14662h-14c-0.138-1.64e-4 -0.25579-0.049037-0.35338-0.14662-0.097582-0.097581-0.14646-0.21538-0.14662-0.35338v-18.5h15z" fill="#ff1616"/>
<path transform="matrix(.86166 0 0 .86505 194.16 223.15)" d="m12 7h1v13h-1z" fill="#ff1616"/>
<path transform="matrix(.86166 0 0 .86505 194.16 223.15)" d="m8 7h1v13h-1z" fill="#ff1616"/>
<path transform="matrix(.86166 0 0 .86505 194.16 223.15)" d="m16 7h1v13h-1z" fill="#ff1616"/>
</g>
<clipPath id="k">
<path transform="scale(.24)" d="m0 0h1562.5v1562.5h-1562.5z" fill-rule="evenodd"/>
</clipPath>
<g transform="translate(-45.261 -125.29)" clip-path="url(#k)">
<path transform="matrix(.93392 0 0 1.0925 203.14 221.85)" d="m0 0h3.8783" fill="none" stroke="#fff"/>
</g>
<clipPath id="j">
<path transform="scale(.24)" d="m985.32 844.05h49.007v114.98h-49.007z" fill-rule="evenodd"/>
</clipPath>
<g transform="translate(-45.162 -124.8)" clip-path="url(#j)" fill="#fff">
<path transform="matrix(.42006 0 0 .42985 228.92 202.61)" d="m43 64h-22c-1.65 0-3-1.35-3-3v-37c0-7.72 6.28-14 14-14s14 6.28 14 14v37c0 1.65-1.35 3-3 3zm-11-52c-6.62 0-12 5.38-12 12v37c0 0.55 0.45 1 1 1h22c0.55 0 1-0.45 1-1v-37c0-6.62-5.38-12-12-12z"/>
<path transform="matrix(.42006 0 0 .42985 228.92 202.61)" d="m39 13h-2v-11h-10v11h-2v-12c0-0.55 0.45-1 1-1h12c0.55 0 1 0.45 1 1z"/>
<path transform="matrix(.42006 0 0 .42985 228.92 202.61)" d="m26 4h9v2h-9z"/>
<path transform="matrix(.42006 0 0 .42985 228.92 202.61)" d="m45 53h-26c-0.55 0-1-0.45-1-1v-26c0-0.55 0.45-1 1-1h26c0.55 0 1 0.45 1 1v26c0 0.55-0.45 1-1 1zm-25-2h24v-24h-24z"/>
</g>
<clipPath id="ar">
<path transform="scale(.24)" d="m987.37 883.72h45.237v71.625h-45.237z" fill-rule="evenodd"/>
</clipPath>
<g transform="translate(-45.162 -124.8)" clip-path="url(#ar)">
<path transform="matrix(1.0487 0 0 1.0519 236.97 212.09)" d="m0 0h10.352v16.338h-10.352v-16.338" fill="#fff"/>
</g>
<clipPath id="aq">
<path transform="scale(.24)" d="m0 0h1562.5v1593.8h-1562.5z"/>
</clipPath>
<g transform="translate(-45.162 -124.8)" clip-path="url(#aq)">
<clipPath id="ap">
<path transform="scale(.24)" d="m0 0h1562.5v1562.5h-1562.5z"/>
</clipPath>
<g clip-path="url(#ap)">
<clipPath id="ao">
<path transform="scale(.24)" d="m0 0h1562.5v1562.5h-1562.5z"/>
</clipPath>
<g clip-path="url(#ao)">
<clipPath id="an">
<path transform="scale(.24)" d="m986.69 864.01h45.237v86.704h-45.237z"/>
</clipPath>
<g clip-path="url(#an)">
<path transform="matrix(0 .32514 -.32728 0 247.66 207.36)" d="m48 0c8.8366 0 16 7.4256 16 16.586 0 9.16-7.1634 16.586-16 16.586h-32c-8.8366 0-16-7.4256-16-16.586 0-9.16 7.1634-16.586 16-16.586h32" fill="#fff"/>
</g>
</g>
</g>
</g>
<clipPath id="am">
<path transform="scale(.24)" d="m999.7 846.73h20.734v22.618h-20.734z" fill-rule="evenodd"/>
</clipPath>
<g transform="translate(-45.162 -124.8)" clip-path="url(#am)">
<path transform="matrix(1.0431 0 0 1.0553 239.93 203.21)" d="m0 0h4.7698v5.1441h-4.7698v-5.1441" fill="#fff"/>
</g>
<clipPath id="al">
<path transform="scale(.24)" d="m0 0h1562.5v1562.5h-1562.5z" fill-rule="evenodd"/>
</clipPath>
<g transform="translate(-45.162 -124.8)" clip-path="url(#al)" fill="none" stroke="#00d6c8">
<path transform="matrix(.44968 0 0 .45237 234.72 212.32)" d="m0 0h34.205"/>
<path transform="matrix(.44968 0 0 .45237 234.72 217.91)" d="m0 0h34.205"/>
<path transform="matrix(.4586 0 0 .45237 237.68 207.36)" d="m0 0h22.692"/>
</g>
<clipPath id="ak">
<path transform="scale(.24)" d="m527.55 840.01h50.892v118.75h-50.892z" fill-rule="evenodd"/>
</clipPath>
<g transform="translate(-45.021 -124.65)" clip-path="url(#ak)" fill="#fff">
<path transform="matrix(.43621 0 0 .444 118.76 201.64)" d="m43 64h-22c-1.65 0-3-1.35-3-3v-37c0-7.72 6.28-14 14-14s14 6.28 14 14v37c0 1.65-1.35 3-3 3zm-11-52c-6.62 0-12 5.38-12 12v37c0 0.55 0.45 1 1 1h22c0.55 0 1-0.45 1-1v-37c0-6.62-5.38-12-12-12z"/>
<path transform="matrix(.43621 0 0 .444 118.76 201.64)" d="m39 13h-2v-11h-10v11h-2v-12c0-0.55 0.45-1 1-1h12c0.55 0 1 0.45 1 1z"/>
<path transform="matrix(.43621 0 0 .444 118.76 201.64)" d="m26 4h9v2h-9z"/>
<path transform="matrix(.43621 0 0 .444 118.76 201.64)" d="m45 53h-26c-0.55 0-1-0.45-1-1v-26c0-0.55 0.45-1 1-1h26c0.55 0 1 0.45 1 1v26c0 0.55-0.45 1-1 1zm-25-2h24v-24h-24z"/>
</g>
<clipPath id="aj">
<path transform="scale(.24)" d="m529.67 881.08h47.122v75.395h-47.122z" fill-rule="evenodd"/>
</clipPath>
<g transform="translate(-45.021 -124.65)" clip-path="url(#aj)">
<path transform="matrix(1.0924 0 0 1.1071 127.12 211.46)" d="m0 0h10.352v16.338h-10.352v-16.338" fill="#fff"/>
</g>
<clipPath id="ai">
<path transform="scale(.24)" d="m0 0h1562.5v1593.8h-1562.5z"/>
</clipPath>
<g transform="translate(-45.021 -124.65)" clip-path="url(#ai)">
<clipPath id="ah">
<path transform="scale(.24)" d="m0 0h1562.5v1562.5h-1562.5z"/>
</clipPath>
<g clip-path="url(#ah)">
<clipPath id="ag">
<path transform="scale(.24)" d="m0 0h1562.5v1562.5h-1562.5z"/>
</clipPath>
<g clip-path="url(#ag)">
<clipPath id="af">
<path transform="scale(.24)" d="m530.56 860.67h45.237v88.589h-45.237z"/>
</clipPath>
<g clip-path="url(#af)">
<path transform="matrix(0 .33215 -.3273 0 138.19 206.56)" d="m48 0c8.8366 0 16 7.4256 16 16.586 0 9.16-7.1634 16.586-16 16.586h-32c-8.8366 0-16-7.4256-16-16.586 0-9.16 7.1634-16.586 16-16.586h32" fill="#fff"/>
</g>
</g>
</g>
</g>
<clipPath id="ae">
<path transform="scale(.24)" d="m542.44 842.78h22.618v22.618h-22.618z" fill-rule="evenodd"/>
</clipPath>
<g transform="translate(-45.021 -124.65)" clip-path="url(#ae)">
<path transform="matrix(1.138 0 0 1.0553 130.19 202.27)" d="m0 0h4.7698v5.1441h-4.7698v-5.1441" fill="#fff"/>
</g>
<clipPath id="ad">
<path transform="scale(.24)" d="m0 0h1562.5v1562.5h-1562.5z" fill-rule="evenodd"/>
</clipPath>
<g transform="translate(-45.021 -124.65)" clip-path="url(#ad)" fill="none" stroke="#ff1616">
<path transform="matrix(.89436 0 0 .87732 124.79 211.9)" d="m0 0h17.708"/>
<path transform="matrix(.89436 0 0 .87732 124.79 217.68)" d="m0 0h17.708"/>
<path transform="matrix(.88608 0 0 .87732 127.86 206.77)" d="m0 0h11.748"/>
</g>
<clipPath id="ac">
<path transform="scale(.24)" d="m1121.5 833.95h79.165v73.51h-79.165z" fill-rule="evenodd"/>
</clipPath>
<g transform="translate(-45.162 -124.8)" clip-path="url(#ac)" fill="#fff">
<path transform="matrix(.14707 0 0 .14939 269.94 200.16)" d="m42.625 28.29c0.993 0.162 1.912 0.54 2.733 1.066-0.496-1.012-1.374-1.801-2.483-2.142-0.979-0.299-1.99-0.437-3.009-0.418-1.023 0.023-2.033 0.209-3.001 0.556-1.076 0.384-1.916 1.198-2.378 2.21 0.407-0.248 0.832-0.469 1.286-0.633 1.138-0.412 2.326-0.672 3.529-0.772 1.107-0.090002 2.225-0.046002 3.323 0.133z"/>
<path transform="matrix(.14707 0 0 .14939 269.94 200.16)" d="m33.832 32.895c1.49-0.653 3.334-1.207 5.48-1.364 2.473-0.178 4.635 0.213 6.367 0.777-0.828-1.077-2.021-1.822-3.377-2.044-0.621-0.102-1.25-0.153-1.879-0.153-0.319 0-0.638 0.013-0.956 0.04-1.027 0.085-2.04 0.307-3.012 0.659-1.078 0.39-1.988 1.126-2.623 2.085z"/>
<path transform="matrix(.14707 0 0 .14939 269.94 200.16)" d="m44.515 17.392c-0.131 0.421-0.268 0.822-0.395 1.256-0.616 2.101-1.134 4.256-1.577 6.415 0.308 0.068 0.615 0.147 0.918 0.24 0.479 0.147 0.918 0.365 1.334 0.614 0.9-1.658 1.786-3.337 2.646-5.018-0.969-1.187-1.945-2.357-2.926-3.507z"/>
<path transform="matrix(.14707 0 0 .14939 269.94 200.16)" d="m86 26.137c0.992 0.162 1.911 0.54 2.733 1.066-0.496-1.012-1.374-1.801-2.483-2.141-0.979-0.3-1.999-0.438-3.009-0.418-1.022 0.023-2.032 0.21-3.001 0.556-1.075 0.384-1.915 1.197-2.378 2.21 0.407-0.248 0.832-0.469 1.286-0.633 1.141-0.413 2.328-0.672 3.528-0.772 1.108-0.092002 2.226-0.047002 3.324 0.132z"/>
<path transform="matrix(.14707 0 0 .14939 269.94 200.16)" d="m118.66 60.713c-6.197-17.068-21.64-25.076-27.993-27.727-0.01-4e-3 -0.016-0.013-0.026-0.017-0.014-6e-3 -0.03-8e-3 -0.044-0.015-1.679-0.858-4.386-1.83-7.765-1.581-3.125 0.228-5.525 1.416-6.989 2.371-0.029 0.019-0.063 0.027-0.093 0.043-0.017 9e-3 -0.028 0.025-0.046 0.033-0.676 0.302-1.346 0.619-2.01 0.948 9.556 4.564 26.456 15.149 33.754 35.251 3.547 9.771 4.945 18.329 4.212 25.62 2.061-1.004 3.905-2.387 5.393-4.071 0.199-0.225 0.394-0.458 0.586-0.697 5.459-6.838 5.802-16.985 1.021-30.158z"/>
<path transform="matrix(.14707 0 0 .14939 269.94 200.16)" d="m72.205 17.515c1.885 2.203 3.741 4.501 5.545 6.847 0.481-0.397 1.025-0.72 1.621-0.957-0.26899-1.542-0.58899-3.082-0.983-4.587-0.471-1.797-1.036-3.589-1.682-5.326-0.192-0.518 0.072-1.093 0.589-1.286 0.517-0.192 1.093 0.072 1.286 0.589 0.668 1.799 1.254 3.655 1.741 5.516 0.39 1.488 0.707 3.011 0.979 4.535 0.625-0.119 1.258-0.188 1.896-0.202 0.243-4e-3 0.487 5e-3 0.73001 0.015 0.459-2.261 1.003-4.521 1.65-6.728 0.58799-2.006 1.261-4.012 2-5.961 0.196-0.517 0.775-0.777 1.29-0.581 0.517 0.196 0.776 0.773 0.581 1.29-0.721 1.901-1.378 3.858-1.952 5.814-0.617 2.105-1.135 4.26-1.577 6.416 0.309 0.067 0.615 0.146 0.919 0.239 0.478 0.147 0.917 0.364 1.333 0.613 1.204-2.218 2.385-4.467 3.506-6.706 2.765-5.523 3.08-6.761 2.67-7.902-0.70501-1.959-3.095-2.804-3.197-2.839-1.194-0.413-2.024-0.199-3.169 0.096001-1.196 0.308-2.682 0.69-4.825 0.302-1.324-0.241-2.103-0.633-2.672-0.919-0.592-0.298-0.83799-0.422-1.462-0.332-0.93901 0.136-1.443 0.614-2.08 1.219-0.081 0.077-0.165 0.15-0.246 0.226-0.265 1.929-1.424 4.515-3.776 9.212-0.23299 0.467-0.47999 0.933-0.71499 1.397z"/>
<path transform="matrix(.14707 0 0 .14939 269.94 200.16)" d="m77.207 30.742c1.49-0.653 3.334-1.207 5.48-1.364 2.477-0.178 4.636 0.214 6.368 0.778-0.828-1.077-2.021-1.823-3.378-2.045-0.622-0.102-1.25-0.153-1.879-0.153-0.319 0-0.638 0.013-0.956 0.04-1.024 0.085-2.038 0.307-3.012 0.66-1.078 0.39-1.988 1.126-2.623 2.084z"/>
<path transform="matrix(.14707 0 0 .14939 269.94 200.16)" d="m68.238 32.346c-1.086-1.804-2.878-3.073-4.962-3.415-0.808-0.132-1.625-0.198-2.441-0.198-0.415 0-0.829 0.017-1.242 0.051-1.333 0.111-2.65 0.399-3.915 0.857-1.708 0.618-3.099 1.89-3.93 3.536 1.999-0.974 4.595-1.855 7.689-2.082 3.504-0.252 6.502 0.404 8.801 1.251z"/>
<path transform="matrix(.14707 0 0 .14939 269.94 200.16)" d="m28.427 19.185c2.025 2.349 4.016 4.816 5.948 7.329 0.481-0.397 1.025-0.72 1.62-0.957-0.268-1.539-0.588-3.079-0.983-4.587-0.47-1.796-1.036-3.587-1.681-5.326-0.192-0.518 0.072-1.093 0.589-1.286 0.516-0.19 1.093 0.071 1.286 0.589 0.668 1.8 1.254 3.656 1.741 5.516 0.39 1.491 0.708 3.013 0.979 4.535 0.625-0.119 1.258-0.188 1.896-0.202 0.244-5e-3 0.487 3e-3 0.73 0.013 0.46-2.264 1.004-4.524 1.649-6.726 0.251-0.856 0.514-1.673 0.78-2.48-0.327-0.376-0.646-0.74-0.95-1.088-2.43-2.776-4.164-4.76-4.905-6.56l-0.019-9e-3c-0.592-0.298-0.838-0.423-1.46-0.331-0.94 0.135-1.443 0.613-2.081 1.219-0.71 0.675-1.595 1.516-3.151 1.726-1.315 0.179-2.223-0.203-2.956-0.509-0.68-0.283-1.128-0.471-1.853-0.271-0.884 0.243-1.966 1.002-2.232 1.932-0.365 1.273 1.063 2.903 3.653 5.863 0.43601 0.5 0.90401 1.035 1.4 1.61z"/>
<path transform="matrix(.14707 0 0 .14939 269.94 200.16)" d="m69.703 35.169c-0.01-4e-3 -0.01599-0.013-0.025-0.017-0.014-7e-3 -0.03-8e-3 -0.045-0.015-2.172-1.11-5.676-2.366-10.051-2.046-4.046 0.295-7.153 1.832-9.047 3.069-0.029 0.019-0.063 0.027-0.093 0.043-0.017 9e-3 -0.028 0.025-0.046 0.033-8.145 3.639-15.333 8.65-21.365 14.896-10.005 10.358-26.513 34.795-17.381 53.132 1.44 2.894 3.511 5.556 6.153 7.913 4.209 3.755 9.735 5.822 15.562 5.822h52.646c6.798 0 13.161-2.79 17.456-7.654 0.25701-0.291 0.50901-0.591 0.75701-0.9 2.731-3.421 4.456-7.489 5.201-12.166-1e-3 -0.074 0.014-0.142 0.029-0.213 1.114-7.319-0.169-16.127-3.886-26.364-7.942-21.878-27.727-32.137-35.865-35.533z"/>
<path transform="matrix(.14707 0 0 .14939 269.94 200.16)" d="m27.593 49.742c5.579-5.776 12.123-10.516 19.469-14.137l-0.21-0.677c-1.693-0.807-4.244-1.635-7.394-1.402-3.125 0.228-5.526 1.415-6.989 2.371-0.029 0.019-0.063 0.027-0.093 0.043-0.017 9e-3 -0.028 0.025-0.04601 0.033-6.359 2.841-11.971 6.754-16.679 11.628-7.806 8.081-20.69 27.134-13.586 41.401 1.117 2.242 2.723 4.307 4.773 6.137 0.082 0.073 0.172 0.139 0.256 0.211-1.666-17.187 11.205-35.986 20.499-45.608z"/>
<path transform="matrix(.14707 0 0 .14939 269.94 200.16)" d="m45.321 15.25c1.358 1.576 2.708 3.194 4.043 4.839 0.024 0.026 0.044 0.051 0.065 0.079 1.237 1.526 2.457 3.08 3.66 4.649 0.698-0.619 1.5-1.126 2.406-1.455-0.35-2.042-0.774-4.086-1.297-6.084-0.601-2.299-1.326-4.594-2.153-6.821-0.192-0.518 0.071-1.093 0.589-1.286 0.517-0.192 1.093 0.072 1.286 0.589 0.851 2.289 1.595 4.648 2.213 7.011 0.52 1.987 0.943 4.017 1.296 6.049 0.87-0.183 1.753-0.295 2.644-0.315 0.38-7e-3 0.759 9.98e-4 1.137 0.023 0.593-2.954 1.313-5.906 2.157-8.785 0.747-2.55 1.604-5.102 2.545-7.584 0.196-0.517 0.776-0.777 1.29-0.581 0.517 0.196 0.77601 0.773 0.58101 1.29-0.92401 2.435-1.764 4.937-2.497 7.438-0.815 2.78-1.512 5.63-2.088 8.482 0.481 0.095 0.96001 0.206 1.433 0.351 0.68299 0.209 1.309 0.525 1.887 0.903 1.59-2.922 3.143-5.881 4.613-8.816 2.571-5.135 3.495-7.41 3.607-8.858 0-5e-3 9.99e-4 -9e-3 9.99e-4 -0.014 0.041-0.558-0.034-0.997-0.18801-1.425-0.943-2.623-4.113-3.744-4.248-3.79-1.605-0.555-2.751-0.258-4.203 0.116-1.577 0.407-3.365 0.869-6.037 0.381-1.65-0.301-2.624-0.791-3.334-1.148-0.762-0.384-1.145-0.575-2.028-0.449-1.286 0.185-1.989 0.854-2.804 1.628-0.924 0.877-1.971 1.872-3.867 2.129-1.598 0.219-2.724-0.253-3.629-0.63-0.886-0.37-1.527-0.639-2.543-0.358-1.23 0.338-2.669 1.358-3.04 2.654-0.507 1.769 1.349 3.889 4.718 7.738 0.556 0.636 1.152 1.317 1.785 2.05z"/>
<path transform="matrix(.14707 0 0 .14939 269.94 200.16)" d="m59.427 26.792c1.386-0.115 2.791-0.06 4.171 0.167 1.537 0.252 2.935 0.912 4.121 1.85-0.531-1.776-1.877-3.205-3.675-3.756-1.276-0.391-2.594-0.572-3.927-0.546-1.333 0.03-2.65 0.274-3.916 0.725-1.722 0.615-2.997 2.048-3.49 3.78 0.695-0.518 1.456-0.949 2.285-1.249 1.431-0.52 2.922-0.846 4.431-0.971z"/>
</g>
<clipPath id="ab">
<path transform="scale(.24)" d="m358.96 833.95h79.165v73.51h-79.165z" fill-rule="evenodd"/>
</clipPath>
<g transform="translate(-45.162 -124.8)" clip-path="url(#ab)" fill="#fff">
<path transform="matrix(.14707 0 0 .14939 86.937 200.16)" d="m42.625 28.29c0.993 0.162 1.912 0.54 2.733 1.066-0.496-1.012-1.374-1.801-2.483-2.142-0.979-0.299-1.99-0.437-3.009-0.418-1.023 0.023-2.033 0.209-3.001 0.556-1.076 0.384-1.916 1.198-2.378 2.21 0.407-0.248 0.832-0.469 1.286-0.633 1.138-0.412 2.326-0.672 3.529-0.772 1.107-0.090002 2.225-0.046002 3.323 0.133z"/>
<path transform="matrix(.14707 0 0 .14939 86.937 200.16)" d="m33.832 32.895c1.49-0.653 3.334-1.207 5.48-1.364 2.473-0.178 4.635 0.213 6.367 0.777-0.828-1.077-2.021-1.822-3.377-2.044-0.621-0.102-1.25-0.153-1.879-0.153-0.319 0-0.638 0.013-0.956 0.04-1.027 0.085-2.04 0.307-3.012 0.659-1.078 0.39-1.988 1.126-2.623 2.085z"/>
<path transform="matrix(.14707 0 0 .14939 86.937 200.16)" d="m44.515 17.392c-0.131 0.421-0.268 0.822-0.395 1.256-0.616 2.101-1.134 4.256-1.577 6.415 0.308 0.068 0.615 0.147 0.918 0.24 0.479 0.147 0.918 0.365 1.334 0.614 0.9-1.658 1.786-3.337 2.646-5.018-0.969-1.187-1.945-2.357-2.926-3.507z"/>
<path transform="matrix(.14707 0 0 .14939 86.937 200.16)" d="m86 26.137c0.992 0.162 1.911 0.54 2.733 1.066-0.496-1.012-1.374-1.801-2.483-2.141-0.979-0.3-1.999-0.438-3.009-0.418-1.022 0.023-2.032 0.21-3.001 0.556-1.075 0.384-1.915 1.197-2.378 2.21 0.407-0.248 0.832-0.469 1.286-0.633 1.141-0.413 2.328-0.672 3.528-0.772 1.108-0.092002 2.226-0.047002 3.324 0.132z"/>
<path transform="matrix(.14707 0 0 .14939 86.937 200.16)" d="m118.66 60.713c-6.197-17.068-21.64-25.076-27.993-27.727-0.01-4e-3 -0.016-0.013-0.026-0.017-0.014-6e-3 -0.03-8e-3 -0.044-0.015-1.679-0.858-4.386-1.83-7.765-1.581-3.125 0.228-5.525 1.416-6.989 2.371-0.029 0.019-0.063 0.027-0.093 0.043-0.017 9e-3 -0.028 0.025-0.046 0.033-0.676 0.302-1.346 0.619-2.01 0.948 9.556 4.564 26.456 15.149 33.754 35.251 3.547 9.771 4.945 18.329 4.212 25.62 2.061-1.004 3.905-2.387 5.393-4.071 0.199-0.225 0.394-0.458 0.586-0.697 5.459-6.838 5.802-16.985 1.021-30.158z"/>
<path transform="matrix(.14707 0 0 .14939 86.937 200.16)" d="m72.205 17.515c1.885 2.203 3.741 4.501 5.545 6.847 0.481-0.397 1.025-0.72 1.621-0.957-0.26899-1.542-0.58899-3.082-0.983-4.587-0.471-1.797-1.036-3.589-1.682-5.326-0.192-0.518 0.072-1.093 0.589-1.286 0.517-0.192 1.093 0.072 1.286 0.589 0.668 1.799 1.254 3.655 1.741 5.516 0.39 1.488 0.707 3.011 0.979 4.535 0.625-0.119 1.258-0.188 1.896-0.202 0.243-4e-3 0.487 5e-3 0.73001 0.015 0.459-2.261 1.003-4.521 1.65-6.728 0.58799-2.006 1.261-4.012 2-5.961 0.196-0.517 0.775-0.777 1.29-0.581 0.517 0.196 0.776 0.773 0.581 1.29-0.721 1.901-1.378 3.858-1.952 5.814-0.617 2.105-1.135 4.26-1.577 6.416 0.309 0.067 0.615 0.146 0.919 0.239 0.478 0.147 0.917 0.364 1.333 0.613 1.204-2.218 2.385-4.467 3.506-6.706 2.765-5.523 3.08-6.761 2.67-7.902-0.70501-1.959-3.095-2.804-3.197-2.839-1.194-0.413-2.024-0.199-3.169 0.096001-1.196 0.308-2.682 0.69-4.825 0.302-1.324-0.241-2.103-0.633-2.672-0.919-0.592-0.298-0.83799-0.422-1.462-0.332-0.93901 0.136-1.443 0.614-2.08 1.219-0.081 0.077-0.165 0.15-0.246 0.226-0.265 1.929-1.424 4.515-3.776 9.212-0.23299 0.467-0.47999 0.933-0.71499 1.397z"/>
<path transform="matrix(.14707 0 0 .14939 86.937 200.16)" d="m77.207 30.742c1.49-0.653 3.334-1.207 5.48-1.364 2.477-0.178 4.636 0.214 6.368 0.778-0.828-1.077-2.021-1.823-3.378-2.045-0.622-0.102-1.25-0.153-1.879-0.153-0.319 0-0.638 0.013-0.956 0.04-1.024 0.085-2.038 0.307-3.012 0.66-1.078 0.39-1.988 1.126-2.623 2.084z"/>
<path transform="matrix(.14707 0 0 .14939 86.937 200.16)" d="m68.238 32.346c-1.086-1.804-2.878-3.073-4.962-3.415-0.808-0.132-1.625-0.198-2.441-0.198-0.415 0-0.829 0.017-1.242 0.051-1.333 0.111-2.65 0.399-3.915 0.857-1.708 0.618-3.099 1.89-3.93 3.536 1.999-0.974 4.595-1.855 7.689-2.082 3.504-0.252 6.502 0.404 8.801 1.251z"/>
<path transform="matrix(.14707 0 0 .14939 86.937 200.16)" d="m28.427 19.185c2.025 2.349 4.016 4.816 5.948 7.329 0.481-0.397 1.025-0.72 1.62-0.957-0.268-1.539-0.588-3.079-0.983-4.587-0.47-1.796-1.036-3.587-1.681-5.326-0.192-0.518 0.072-1.093 0.589-1.286 0.516-0.19 1.093 0.071 1.286 0.589 0.668 1.8 1.254 3.656 1.741 5.516 0.39 1.491 0.708 3.013 0.979 4.535 0.625-0.119 1.258-0.188 1.896-0.202 0.244-5e-3 0.487 3e-3 0.73 0.013 0.46-2.264 1.004-4.524 1.649-6.726 0.251-0.856 0.514-1.673 0.78-2.48-0.327-0.376-0.646-0.74-0.95-1.088-2.43-2.776-4.164-4.76-4.905-6.56l-0.019-9e-3c-0.592-0.298-0.838-0.423-1.46-0.331-0.94 0.135-1.443 0.613-2.081 1.219-0.71 0.675-1.595 1.516-3.151 1.726-1.315 0.179-2.223-0.203-2.956-0.509-0.68-0.283-1.128-0.471-1.853-0.271-0.884 0.243-1.966 1.002-2.232 1.932-0.365 1.273 1.063 2.903 3.653 5.863 0.43601 0.5 0.90401 1.035 1.4 1.61z"/>
<path transform="matrix(.14707 0 0 .14939 86.937 200.16)" d="m69.703 35.169c-0.01-4e-3 -0.01599-0.013-0.025-0.017-0.014-7e-3 -0.03-8e-3 -0.045-0.015-2.172-1.11-5.676-2.366-10.051-2.046-4.046 0.295-7.153 1.832-9.047 3.069-0.029 0.019-0.063 0.027-0.093 0.043-0.017 9e-3 -0.028 0.025-0.046 0.033-8.145 3.639-15.333 8.65-21.365 14.896-10.005 10.358-26.513 34.795-17.381 53.132 1.44 2.894 3.511 5.556 6.153 7.913 4.209 3.755 9.735 5.822 15.562 5.822h52.646c6.798 0 13.161-2.79 17.456-7.654 0.25701-0.291 0.50901-0.591 0.75701-0.9 2.731-3.421 4.456-7.489 5.201-12.166-1e-3 -0.074 0.014-0.142 0.029-0.213 1.114-7.319-0.169-16.127-3.886-26.364-7.942-21.878-27.727-32.137-35.865-35.533z"/>
<path transform="matrix(.14707 0 0 .14939 86.937 200.16)" d="m27.593 49.742c5.579-5.776 12.123-10.516 19.469-14.137l-0.21-0.677c-1.693-0.807-4.244-1.635-7.394-1.402-3.125 0.228-5.526 1.415-6.989 2.371-0.029 0.019-0.063 0.027-0.093 0.043-0.017 9e-3 -0.028 0.025-0.04601 0.033-6.359 2.841-11.971 6.754-16.679 11.628-7.806 8.081-20.69 27.134-13.586 41.401 1.117 2.242 2.723 4.307 4.773 6.137 0.082 0.073 0.172 0.139 0.256 0.211-1.666-17.187 11.205-35.986 20.499-45.608z"/>
<path transform="matrix(.14707 0 0 .14939 86.937 200.16)" d="m45.321 15.25c1.358 1.576 2.708 3.194 4.043 4.839 0.024 0.026 0.044 0.051 0.065 0.079 1.237 1.526 2.457 3.08 3.66 4.649 0.698-0.619 1.5-1.126 2.406-1.455-0.35-2.042-0.774-4.086-1.297-6.084-0.601-2.299-1.326-4.594-2.153-6.821-0.192-0.518 0.071-1.093 0.589-1.286 0.517-0.192 1.093 0.072 1.286 0.589 0.851 2.289 1.595 4.648 2.213 7.011 0.52 1.987 0.943 4.017 1.296 6.049 0.87-0.183 1.753-0.295 2.644-0.315 0.38-7e-3 0.759 9.98e-4 1.137 0.023 0.593-2.954 1.313-5.906 2.157-8.785 0.747-2.55 1.604-5.102 2.545-7.584 0.196-0.517 0.776-0.777 1.29-0.581 0.517 0.196 0.77601 0.773 0.58101 1.29-0.92401 2.435-1.764 4.937-2.497 7.438-0.815 2.78-1.512 5.63-2.088 8.482 0.481 0.095 0.96001 0.206 1.433 0.351 0.68299 0.209 1.309 0.525 1.887 0.903 1.59-2.922 3.143-5.881 4.613-8.816 2.571-5.135 3.495-7.41 3.607-8.858 0-5e-3 9.99e-4 -9e-3 9.99e-4 -0.014 0.041-0.558-0.034-0.997-0.18801-1.425-0.943-2.623-4.113-3.744-4.248-3.79-1.605-0.555-2.751-0.258-4.203 0.116-1.577 0.407-3.365 0.869-6.037 0.381-1.65-0.301-2.624-0.791-3.334-1.148-0.762-0.384-1.145-0.575-2.028-0.449-1.286 0.185-1.989 0.854-2.804 1.628-0.924 0.877-1.971 1.872-3.867 2.129-1.598 0.219-2.724-0.253-3.629-0.63-0.886-0.37-1.527-0.639-2.543-0.358-1.23 0.338-2.669 1.358-3.04 2.654-0.507 1.769 1.349 3.889 4.718 7.738 0.556 0.636 1.152 1.317 1.785 2.05z"/>
<path transform="matrix(.14707 0 0 .14939 86.937 200.16)" d="m59.427 26.792c1.386-0.115 2.791-0.06 4.171 0.167 1.537 0.252 2.935 0.912 4.121 1.85-0.531-1.776-1.877-3.205-3.675-3.756-1.276-0.391-2.594-0.572-3.927-0.546-1.333 0.03-2.65 0.274-3.916 0.725-1.722 0.615-2.997 2.048-3.49 3.78 0.695-0.518 1.456-0.949 2.285-1.249 1.431-0.52 2.922-0.846 4.431-0.971z"/>
</g>
<clipPath id="aa">
<path transform="scale(.24)" d="m0 0h1562.5v1562.5h-1562.5z" fill-rule="evenodd"/>
</clipPath>
<g transform="translate(-45.162 -124.8)" clip-path="url(#aa)" fill="#00d6c8">
<symbol id="f">
<path d="m0.384 0.692c0.002667 0.005333 0.007333 8e-3 0.014 8e-3h0.093c0.003333 0 6e-3 -0.001333 8e-3 -4e-3 0.002667-2e-3 4e-3 -0.004667 4e-3 -8e-3v-0.676c0-0.0033333-0.001333-0.0063333-4e-3 -9e-3 -2e-3 -2e-3 -0.0046666-3e-3 -8e-3 -3e-3h-0.092c-0.003333 0-0.006333 1e-3 -9e-3 3e-3 -2e-3 0.0026667-3e-3 0.0056667-3e-3 9e-3v0.474c-3e-8 0.002667-6.6667e-4 4e-3 -2e-3 4e-3 -0.001333 6.6673e-4 -0.002667 0-4e-3 -2e-3l-0.106-0.175c-0.0026666-0.0053333-0.0073333-8e-3 -0.014-8e-3h-0.019c-0.006667 0-0.011333 0.002667-0.014 8e-3l-0.106 0.174c-0.001333 2e-3 -0.002667 0.002667-4e-3 2e-3 -0.001333 0-2e-3 -0.001333-2e-3 -4e-3v-0.473c1e-8 -0.0033333-0.0013333-0.0063333-4e-3 -9e-3 -2e-3 -2e-3 -0.0046667-3e-3 -8e-3 -3e-3h-0.092c-0.0033333 0-0.0063333 1e-3 -9e-3 3e-3 -2e-3 0.0026667-3e-3 0.0056667-3e-3 9e-3v0.676c0 0.003333 1e-3 6e-3 3e-3 8e-3 0.0026667 0.002667 0.0056667 4e-3 9e-3 4e-3h0.092c0.006667 0 0.011333-0.002667 0.014-8e-3l0.131-0.209c2e-3 -4e-3 4e-3 -4e-3 6e-3 0z"/>
</symbol>
<symbol id="g">
<path d="m0.012 0c-0.0033333 0-0.0063333 1e-3 -9e-3 3e-3 -2e-3 0.0026667-3e-3 0.0056667-3e-3 9e-3v0.676c0 0.003333 1e-3 6e-3 3e-3 8e-3 0.0026667 0.002667 0.0056667 4e-3 9e-3 4e-3h0.092c0.003333 0 6e-3 -0.001333 8e-3 -4e-3 0.002667-2e-3 4e-3 -0.004667 4e-3 -8e-3v-0.676c0-0.0033333-0.001333-0.0063333-4e-3 -9e-3 -2e-3 -2e-3 -0.004667-3e-3 -8e-3 -3e-3z"/>
</symbol>
<symbol id="e">
<path d="m0.346 0.688c3e-8 0.003333 1e-3 6e-3 3e-3 8e-3 0.002667 0.002667 0.005667 4e-3 9e-3 4e-3h0.092c0.003333 0 6e-3 -0.001333 8e-3 -4e-3 0.002667-2e-3 4e-3 -0.004667 4e-3 -8e-3v-0.676c0-0.0033333-0.001333-0.0063333-4e-3 -9e-3 -2e-3 -2e-3 -0.0046667-3e-3 -8e-3 -3e-3h-0.097c-6e-3 0-0.010667 3e-3 -0.014 9e-3l-0.218 0.448c-0.001333 2e-3 -0.002667 0.002667-4e-3 2e-3 -0.001333 0-2e-3 -0.001333-2e-3 -4e-3l1e-3 -0.443c0-0.0033333-0.001333-0.0063333-4e-3 -9e-3 -2e-3 -2e-3 -0.0046667-3e-3 -8e-3 -3e-3h-0.092c-0.0033333 0-0.0063333 1e-3 -9e-3 3e-3 -2e-3 0.0026667-3e-3 0.0056667-3e-3 9e-3v0.676c0 0.003333 1e-3 6e-3 3e-3 8e-3 0.0026667 0.002667 0.0056667 4e-3 9e-3 4e-3h0.096c0.006667 0 0.011333-3e-3 0.014-9e-3l0.219-0.45c0.001333-2e-3 0.002667-3e-3 4e-3 -3e-3 0.001333 6.6667e-4 2e-3 0.002333 2e-3 5e-3z"/>
</symbol>
<symbol id="i">
<path d="m0.411 0.612c0-0.003333-0.001333-0.006333-4e-3 -9e-3 -2e-3 -0.0020001-0.0046666-0.0030001-8e-3 -0.0030001h-0.278c-0.003333 0-5e-3 -0.001667-5e-3 -5e-3v-0.188c0-0.003333 0.001667-5e-3 5e-3 -5e-3h0.178c0.003333 5e-8 6e-3 -0.001333 8e-3 -4e-3 0.002667-2e-3 4e-3 -0.004667 4e-3 -8e-3v-0.076c0-0.003333-0.001333-0.006333-4e-3 -9e-3 -2e-3 -2e-3 -0.004667-3e-3 -8e-3 -3e-3h-0.178c-0.003333 0-5e-3 -0.001667-5e-3 -5e-3v-0.192c0-0.003333 0.001667-5e-3 5e-3 -5e-3h0.278c0.003333 0 6e-3 -0.0013333 8e-3 -4e-3 0.002667-2e-3 4e-3 -0.0046667 4e-3 -8e-3v-0.076c-3e-8 -0.0033333-0.0013333-0.0063333-4e-3 -9e-3 -2e-3 -2e-3 -0.0046666-3e-3 -8e-3 -3e-3h-0.387c-0.0033333 0-0.0063333 1e-3 -9e-3 3e-3 -2e-3 0.0026667-3e-3 0.0056667-3e-3 9e-3v0.676c0 0.003333 1e-3 6e-3 3e-3 8e-3 0.0026667 0.002667 0.0056667 4e-3 9e-3 4e-3h0.387c0.003333 0 6e-3 -0.001333 8e-3 -4e-3 0.002667-2e-3 4e-3 -0.004667 4e-3 -8e-3z"/>
</symbol>
<use transform="matrix(96.692 0 0 -96.692 45.56 192.84)" xlink:href="#f"/>
<use transform="matrix(96.692 0 0 -96.692 102.22 192.84)" xlink:href="#b"/>
<use transform="matrix(96.692 0 0 -96.692 159.75 192.84)" xlink:href="#a"/>
<use transform="matrix(96.692 0 0 -96.692 211.67 192.84)" xlink:href="#g"/>
<use transform="matrix(96.692 0 0 -96.692 235.07 192.84)" xlink:href="#e"/>
<use transform="matrix(96.692 0 0 -96.692 292.02 192.84)" xlink:href="#i"/>
</g>
<clipPath id="z">
<path transform="scale(.24)" d="m487.08 692.34h93.75v43.75h-93.75z" fill-rule="evenodd"/>
</clipPath>
<g transform="translate(-44.6 -124.94)" clip-path="url(#z)">
<path transform="matrix(1.7609 0 0 1.7592 116.9 166.16)" d="m0 0h12.775v5.9685h-12.775v-5.9685" fill="#00d6c8"/>
</g>
<clipPath id="y">
<path transform="scale(.24)" d="m496.17 580.12h60.869v142.81h-60.869z" fill-rule="evenodd"/>
</clipPath>
<g transform="translate(-44.6 -124.94)" clip-path="url(#y)" fill="#fff">
<path transform="matrix(.52173 0 0 .53389 109.69 139.28)" d="m43 64h-22c-1.65 0-3-1.35-3-3v-37c0-7.72 6.28-14 14-14s14 6.28 14 14v37c0 1.65-1.35 3-3 3zm-11-52c-6.62 0-12 5.38-12 12v37c0 0.55 0.45 1 1 1h22c0.55 0 1-0.45 1-1v-37c0-6.62-5.38-12-12-12z"/>
<path transform="matrix(.52173 0 0 .53389 109.69 139.28)" d="m39 13h-2v-11h-10v11h-2v-12c0-0.55 0.45-1 1-1h12c0.55 0 1 0.45 1 1z"/>
<path transform="matrix(.52173 0 0 .53389 109.69 139.28)" d="m26 4h9v2h-9z"/>
<path transform="matrix(.52173 0 0 .53389 109.69 139.28)" d="m45 53h-26c-0.55 0-1-0.45-1-1v-26c0-0.55 0.45-1 1-1h26c0.55 0 1 0.45 1 1v26c0 0.55-0.45 1-1 1zm-25-2h24v-24h-24z"/>
</g>
<clipPath id="w">
<path transform="scale(.24)" d="m498.72 629.39h56.187v88.962h-56.187z" fill-rule="evenodd"/>
</clipPath>
<g transform="translate(-44.6 -124.94)" clip-path="url(#w)">
<path transform="matrix(1.3026 0 0 1.3065 119.69 151.06)" d="m0 0h10.352v16.338h-10.352v-16.338" fill="#fff"/>
</g>
<clipPath id="v">
<path transform="scale(.24)" d="m0 0h1562.5v1593.8h-1562.5z"/>
</clipPath>
<g transform="translate(-44.6 -124.94)" clip-path="url(#v)">
<clipPath id="u">
<path transform="scale(.24)" d="m0 0h1562.5v1562.5h-1562.5z"/>
</clipPath>
<g clip-path="url(#u)">
<clipPath id="t">
<path transform="scale(.24)" d="m0 0h1562.5v1562.5h-1562.5z"/>
</clipPath>
<g clip-path="url(#t)">
<clipPath id="s">
<path transform="scale(.24)" d="m497.87 604.92h56.187v107.69h-56.187z"/>
</clipPath>
<g clip-path="url(#s)">
<path transform="matrix(0 .40384 -.4065 0 132.97 145.18)" d="m48 0c8.8366 0 16 7.4256 16 16.586 0 9.16-7.1634 16.586-16 16.586h-32c-8.8366 0-16-7.4256-16-16.586 0-9.16 7.1634-16.586 16-16.586h32" fill="#fff"/>
</g>
</g>
</g>
</g>
<clipPath id="r">
<path transform="scale(.24)" d="m514.03 583.45h25.752v28.093h-25.752z" fill-rule="evenodd"/>
</clipPath>
<g transform="translate(-44.6 -124.94)" clip-path="url(#r)">
<path transform="matrix(1.2956 0 0 1.3107 123.37 140.03)" d="m0 0h4.7698v5.1441h-4.7698v-5.1441" fill="#fff"/>
</g>
<clipPath id="q">
<path transform="scale(.24)" d="m0 0h1562.5v1562.5h-1562.5z" fill-rule="evenodd"/>
</clipPath>
<g transform="translate(-44.6 -124.94)" clip-path="url(#q)" fill="none" stroke="#00d6c8">
<path transform="matrix(.55853 0 0 .56187 116.9 151.34)" d="m0 0h34.205"/>
<path transform="matrix(.55853 0 0 .56187 116.9 158.28)" d="m0 0h34.205"/>
<path transform="matrix(.5696 0 0 .56187 120.58 145.18)" d="m0 0h22.692"/>
</g>
<clipPath id="p">
<path transform="scale(.24)" d="m705.08 557.09h109.38v112.5h-109.38z" fill-rule="evenodd"/>
</clipPath>
<g transform="matrix(.9092 0 0 .94849 -29.797 -117.91)" clip-path="url(#p)">
<path transform="matrix(1.7462 0 0 1.7733 169.22 133.7)" d="m0 0h15.033v15.222h-15.033v-15.222" fill="#00d6c8"/>
</g>
<clipPath id="o">
<path transform="scale(.24)" d="m684.78 549.72h118.75v118.75h-118.75z" fill-rule="evenodd"/>
</clipPath>
<g transform="translate(-45.162 -124.8)" clip-path="url(#o)">
<path transform="matrix(.80508 0 0 .80508 164.27 131.97)" d="m30.001 29c-0.348 0-0.685-0.181-0.869-0.504l-4.235-6.976c-0.274-0.479-0.167-1.079 0.312-1.354l4.958-3c0.156-0.089 0.496-0.166 0.664-0.166 0.348 0 0.672 0.198 0.856 0.521l3.107 5.122 0.164 2.232c0.274 0.479-0.958 1.184-1.438 1.458l-3.025 2.535c-0.155 0.09-0.326 0.132-0.494 0.132z" fill="#d3fffc"/>
<path transform="matrix(.80508 0 0 .80508 164.27 131.97)" d="m23 32c-0.553 0-1-0.447-1-1v-6c0-0.553 0.447-1 1-1h10c1.85 0 1.55-1.781 1.55-1.781s0.327 0.562 0.375 0.651c0.327 0.614 0.544 1.552 0.034 2.505l-3.089 6.122c-0.145 0.289-0.491 0.503-0.87 0.503h-8z" fill="#fff"/>
<path transform="matrix(.80508 0 0 .80508 164.27 131.97)" d="m22 35c-0.26 0-0.516-0.102-0.707-0.293l-6-6c-0.391-0.391-0.391-1.023 0-1.414l6-6c0.191-0.191 0.447-0.293 0.707-0.293 0.129 0 0.259 0.024 0.383 0.076 0.374 0.154 0.617 0.52 0.617 0.924v12c0 0.404-0.243 0.77-0.617 0.924-0.124 0.051999-0.254 0.076-0.383 0.076z" fill="#fff"/>
<path transform="matrix(.80508 0 0 .80508 164.27 131.97)" d="m20.593 3.299c0.158 0.31 0.15 0.692-0.054 1.004l-4.293 6.94c-0.303 0.463-0.886 0.639-1.348 0.336l-4.924-3.054c-0.15-0.099-0.374-0.367-0.45-0.516-0.158-0.31-0.129-0.688 0.075-1l3.152-5.094 1.914-1.159c0.303-0.463 1.49 0.315 1.953 0.619l3.631 1.544c0.152 0.099 0.268 0.232 0.344 0.38z" fill="#d3fffc"/>
<path transform="matrix(.80508 0 0 .80508 164.27 131.97)" d="m26.444 8.175c0.251 0.493 0.057 1.094-0.437 1.346l-5.347 2.724c-0.492 0.25-1.094 0.055-1.344-0.437l-4.542-8.91c-0.839-1.649-2.29-0.573-2.29-0.573s0.352-0.546 0.41-0.63c0.399-0.57 1.135-1.188 2.216-1.167l6.859-0.028c0.324 0 0.671 0.209 0.844 0.547z" fill="#fff"/>
<path transform="matrix(.80508 0 0 .80508 164.27 131.97)" d="m29.571 7.705c0.118 0.231 0.143 0.505 0.06 0.762l-2.621 8.071c-0.17 0.525-0.734 0.812-1.26 0.642l-8.07-2.623c-0.258-0.083-0.464-0.265-0.583-0.496-0.059-0.114-0.096-0.242-0.107-0.376-0.032-0.404 0.184-0.786 0.544-0.969l10.692-5.448c0.36-0.184 0.795-0.134 1.103 0.13 0.103 0.086 0.184 0.192 0.242 0.307z" fill="#fff"/>
<path transform="matrix(.80508 0 0 .80508 164.27 131.97)" d="m3.375 24.542c0.181-0.297 0.51-0.49 0.882-0.479l8.161 5e-3c0.553 0.017 1.009 0.42 0.995 0.972l-0.014 5.795c-5e-3 0.18-0.116 0.512-0.203 0.654-0.181 0.297-0.519 0.472-0.891 0.461l-5.99-8e-3 -1.993-1.019c-0.551-0.016999-0.513-1.435-0.499-1.986l-0.593-3.904c4e-3 -0.179 0.058-0.348 0.145-0.491z" fill="#d3fffc"/>
<path transform="matrix(.80508 0 0 .80508 164.27 131.97)" d="m4.451 17.002c0.287-0.472 0.902-0.622 1.374-0.335l5.126 3.119c0.473 0.287 0.622 0.901 0.335 1.374l-5.197 8.543c-0.96 1.58 0.717 2.25 0.717 2.25s-0.65-0.014-0.751-0.02c-0.696-0.038-1.609-0.341-2.159-1.271l-3.626-5.82c-0.171-0.275-0.174-0.682 0.023-1.006z" fill="#fff"/>
<path transform="matrix(.80508 0 0 .80508 164.27 131.97)" d="m2.407 14.589c0.136-0.224 0.355-0.388 0.618-0.454l8.245-2.006c0.537-0.132 1.077 0.197 1.208 0.734l2.007 8.244c0.064 0.264 0.017 0.534-0.118 0.757-0.066 0.109-0.155 0.208-0.264 0.288-0.326 0.238-0.764 0.256-1.11 0.046l-10.25-6.235c-0.346-0.211-0.531-0.609-0.469-1.008 0.02-0.134 0.066-0.256 0.133-0.366z" fill="#fff"/>
</g>
</g>
</svg>
