<svg xmlns="http://www.w3.org/2000/svg" xmlns:xlink="http://www.w3.org/1999/xlink" overflow="hidden" viewBox="0 0 193.76 35.044" xmlns:v="https://vecta.io/nano"><defs><clipPath id="A"><path d="M-2826 336h2120v593h-2120z"/></clipPath><path id="B" d="M-2626.6 504.56h-2.01l-4.007-11.539.262-.386h3.415v-7.931h-4.916v19.856h-1.914v-21.549h7.215q.675 0 1.102.427.427.427.427 1.102v8.179q0 1.556-2.093 1.556-.207 0-.606-.014-.399-.027-.578-.027 1.859 5.15 3.704 10.327z"/><path id="C" d="M-2615 504.56h-1.9l-.757-4.792h-4.282l-.757 4.792h-1.845v-.055l3.842-21.549h1.886zm-2.905-6.485l-1.887-11.677-1.9 11.677z"/></defs><g transform="translate(2734.4 -482.96)" clip-path="url(#A)"><g fill="#008077"><path d="M-2705.6 504.56h-1.804v-13.646q0-.289.193-1.694l-3.525 13.315h-.385l-3.525-13.315q.193 1.418.193 1.694v13.646h-1.804v-21.549h1.776l3.497 14.017q.028.11.055.62 0-.207.055-.62l3.497-14.017h1.776zm12.1 0h-1.9l-.757-4.792h-4.282l-.757 4.792h-1.845v-.055l3.842-21.549h1.886zm-2.905-6.485l-1.886-11.677-1.9 11.677zm14.605 6.485h-2.01l-4.007-11.539.262-.386h3.415v-7.931h-4.916v19.856h-1.914v-21.549h7.215q.675 0 1.102.427.427.427.427 1.102v8.179q0 1.556-2.093 1.556-.206 0-.606-.014-.399-.027-.578-.027 1.859 5.15 3.704 10.327zm4.9 0h-1.914v-21.549h1.914zm12.5 0h-1.322l-5.756-15.849v15.849h-1.804v-21.549h1.432l5.646 15.573v-15.573h1.804zm10.5 0h-7.078v-21.549h6.995v1.694h-5.081v8.041h4.627v1.721h-4.627v8.399h5.164z"/><g fill="red"><path d="M-2638 484.7h-3.332v19.856h-1.914V484.7h-3.36v-1.694h8.606z"/><use xlink:href="#B"/><use xlink:href="#C"/><path d="M-2604.1 503.03q0 .675-.427 1.102-.413.427-1.088.427h-5.425q-.675 0-1.115-.427-.427-.427-.427-1.102v-5.466h1.914v5.301h4.654v-5.136l-5.948-7.188q-.62-.744-.62-1.639v-4.365q0-.675.427-1.102.441-.427 1.115-.427h5.425q.675 0 1.088.427.427.427.427 1.102v5.012h-1.914v-4.847h-4.654v4.544l5.976 7.188q.592.716.592 1.611zm12.4 1.53h-1.914v-10.355h-5.191v10.355h-1.914v-21.549h1.914v9.473h5.191v-9.473h1.914z"/></g><path d="M-2579.5 504.56h-1.9l-.757-4.792h-4.282l-.757 4.792h-1.845v-.055l3.842-21.549h1.886zm-2.905-6.485l-1.887-11.677-1.9 11.677zm14.605 6.485h-2.01l-4.007-11.539.262-.386h3.415v-7.931h-4.916v19.856h-1.914v-21.549h7.215q.675 0 1.102.427.427.427.427 1.102v8.179q0 1.556-2.093 1.556-.207 0-.606-.014-.399-.027-.578-.027 1.859 5.15 3.704 10.327zm10.3-19.86h-3.332v19.856h-1.914V484.7h-3.36v-1.694h8.606z"/><g fill="#000"><path d="M-2734.4 513.32v-.859h6.644v.859zm19.8-3.65q-.057-.429-.497-.452h-3.819v-.768h3.819q1.153.09 1.266 1.22-.079.994-.735 1.74l-1.706 1.718v1.232q-.045.961-.396 1.842l-.655 1.48-.712-.305.667-1.492q.282-.735.328-1.525v-4.158h.768v1.831l1.164-1.164q.441-.509.508-1.198zm6.1 3.65v-.859h6.644v.859zm16.6-.62l1.017 1.107-.576.52-1.017-1.107q-.508-.475-1.186-.52h-1.367v4.961h-.78v-9.345h.78v3.616h1.367q1.017.057 1.763.768zm6.6-2.95h.927v-.599h-.746q-.09.305-.181.599zm3.639 2.181v-3.786h.735v3.786zm1.571-4.045h.768v4.023q0 .949-.169 1.198-.169.237-.802.237-.339 0-1.107-.057l-.023-.757q.701.057 1.051.057.203 0 .237-.09.045-.102.045-.565zm-6.102 8.543l-.192-.723q1.672-.486 2.497-1.254h-2.283v-.689h3.277v-.712q-.068 0-.633-.034l-.011-.621q.531.034.633.034.102 0 .102-.068.011-.079.011-.497v-.305h-.814v1.864h-.768v-1.865h-.735v1.559h-.735v-2.181h1.469v-.531h-1.729v-.655h.282l-.316-.26q.452-.825.633-1.639l.735.102q-.068.35-.09.554h.486v-.723h.768v.723h1.571v.644h-1.571v.599h1.74v.655h-1.74v.531h1.526v1.153q0 .497-.057.689-.045.181-.011.237h.056v.746h3.04v.689h-2.836q.271.701.712 1.254.599-.531 1.22-1.22l.622.429q-.588.633-1.243 1.232.667.655 1.751 1.028l-.305.701q-1.277-.441-2.215-1.345-.938-.904-1.356-2.079h-.056q-.362.407-.881.802v1.559q.735-.181 2.045-.497l.068.701q-2.215.599-4.226.847l-.09-.712q.542-.057 1.412-.215v-1.288q-.588.407-1.763.78zm13.092-5.709v7.221h-.814v-5.673q-.237 1.028-.746 1.672l-.384-.802q1.3-2.226 1.819-5.334l.768.192q-.215 1.39-.644 2.723zm5.56-1.141h-2.463v2.045h2.226v.757h-2.226v2.124h2.226v.78h-2.226v2.655h-.814v-8.362h-.316q-.463 1.706-1.232 3.13l-.622-.52q1.028-2.045 1.559-4.497l.746.17q-.113.531-.203.961h3.345zm6.64 6.591q.045.452.497.497h2.949v.768h-2.949q-1.164-.113-1.277-1.266v-.78q.011-.509.271-.949.237-.452.655-.735l.881-.576v-.113q-.045-.452-.497-.497-.542 0-.859-.407-.294-.429-.158-.938l.102-.328q.102-.384.147-.78h-1.39v-.78h1.469q-.011-.034 0-.068v-.961h.78v.961q-.011.034 0 .068h2.678v.78h-2.746q-.079.497-.203 1.006l-.09.328q-.056.136.023.249.09.102.249.102.904.045 1.209.904l1.13-.723.429.633-1.503.983v1.842h-.768v-1.333l-.452.305q-.52.395-.576 1.028zm12.8-3.75h-1.175v1.13h1.175zm.746 0v1.13h1.22v-1.13zm-.746-.644v-1.062h-1.175v1.062zm.746 0h1.22v-1.062h-1.22zm-.35-1.944q.622-.441 1.096-1.006h-2q.588.667.904 1.006zm-2.531.316l-.542.52q-.836-1.243-1.412-2l.531-.52q.723.927 1.424 2zm-2.079 1.932h1.842v3.503q.215.542.497.825.282.282.825.407.554.124 1.559.124h2.475l-.023.757h-2.475q-1.424 0-2.158-.283-.735-.283-1.04-1.006-.396.735-1.243 1.48l-.35-.723q.701-.644 1.164-1.367v-2.961h-1.073zm2.136-3.254v-.712h4.814v.712q-.554.554-1.322 1.209h1.322v5.006q0 .802-.136.983-.136.181-.678.181-.305 0-.87-.034l-.011-.701q.633.045.791.045.113 0 .124-.068.011-.068.011-.418v-.836h-1.22v1.977h-.746v-1.977h-1.175v2.057h-.746v-6.215h1.379q-.271-.407-.78-.78l.249-.429zm14.578 5.514l.768.169-.429 1.808q-.339 1.062-1.446 1.164h-1.401q-1.175-.113-1.277-1.266v-7.921h.78v7.921q.034.452.497.497h1.401q.531-.057.701-.565zm-1.582-2.983v-.836h.836v.836zm1.39 0v-.836h.836v.836zm11.292 2.003l.373-.689q.023-.034.034-.068-.102-.045-.203-.045h-1.989v-.768h1.989q.554-.023.87.418.203.418-.023.836l-.373.689zm-1.096 4.125q-1.164-.102-1.266-1.243v-.87h.768v.87q.056.441.497.475h2.305v.768zm-3.017-2.735q.158-.825.169-1.672v-2.949h-.847v-.78h.847v-1.04h.768v1.04h2.17v.78h-2.17v2.949q-.023.915-.181 1.819l-.554 2.633-.757-.158zm15.113-1.67h1.141q.034-.554.113-2.091h-1.13q-.034.667-.124 2.091zm-.746 0q.102-1.424.124-2.091h-1.107l-.147 2.091zm-.271 2.836q.124-1.175.192-2.102h-1.153q-.124 1.367-.203 2.102zm.757 0h1.175l.147-2.102h-1.153q-.113 1.413-.169 2.102zm-4.61-7.334l.452-.61q.791.78 1.424 1.548l-.463.61q-.644-.746-1.412-1.548zm1.164 4.192q-.689-.836-1.548-1.706l.463-.61q.904.893 1.548 1.695zm.633 1.435q-.463 2-1.322 3.582l-.622-.463q.78-1.571 1.266-3.413zm-.384-2.814q.961-1.65 1.435-3.797l.735.17q-.057.283-.192.848h3.729v.735h-3.966q-.169.576-.26.915h4.045q-.079 1.514-.158 2.814h.497v.735h-.576q-.068 1.096-.136 2.102h.475v.723h-.554q0 .068-.023.203-.011.136-.011.203-.068.565-.26.757-.181.192-.644.192-.136 0-.938-.045l-.023-.712q.542.034.825.034.192 0 .215-.079.034-.079.068-.475 0-.011 0-.034.011-.034.011-.045h-3.13q0 .147-.045.384-.034.249-.056.362l-.768-.068q.226-1.458.418-3.503h-.531v-.735h.633q.079-.915.136-2.136-.079.61-.407 1.028zm9.957-2.875l.463-.542q.746.757 1.367 1.548l-.497.554q-.633-.802-1.333-1.559zm1.13 4.271q-.712-.904-1.458-1.706l.452-.588q.814.848 1.48 1.706zm.576 1.446q-.418 1.966-1.164 3.559l-.633-.441q.701-1.548 1.107-3.413zm3.141.316h2.294v.768h-2.294v2.622h-.791v-2.622h-2.362v-.768h2.362v-1.91h-2.079v-.735h2.079v-1.785h-2.226v-.757h1.266q-.158-.576-.576-1.48l.689-.237q.362.791.667 1.718h1.141q.362-.859.655-1.706l.723.203q-.271.701-.554 1.503h1.175v.757h-2.17v1.785h2.034v.735h-2.034zm10.753-2.653l.497-1.706q.045-.147-.023-.26-.102-.102-.226-.09h-2.972v-.768h2.972q.52 0 .847.407.282.418.147.938l-.497 1.695zm1.537 4.803v.768h-3.435q-1.164-.113-1.266-1.266v-1.944h.768v1.944q.045.452.497.497zm-.599-8.159v-.836h.847v.836zm1.39 0v-.836h.847v.836zm9.272 7.566q.226-.78.249-1.605v-1.277h-1.548l-.102 2.949q-.124 1.119-1.232 1.254-1.119-.158-1.175-1.266v-2.441q.113-1.175 1.266-1.266h.508l.102-2.712q0-.203-.136-.328-.147-.158-.328-.147h-1.311v-.768h1.311q.52-.011.893.373.339.384.339.904l-.102 2.678h1.514v-3.243h.78v3.243h.915v.768h-.915v1.277q-.034.927-.305 1.842l-.373 1.153-.723-.249zm-2.181.045l.113-2.927h-.475q-.452.034-.497.497v2.441q.011.407.407.497.418-.09.452-.509zm10.581-2.095q.497-1.74.588-4.023h-1.085q-.113.814-.237 1.514l.271-.158q.237 1.65.463 2.667zm2.554-4.949v1.559q0 2.09-.237 3.266-.226 1.175-.814 1.932l-.531-.655q.452-.655.633-1.639.181-.983.181-2.995v-2.237h2.565v6q0 .395.011.463.011.068.113.068.079 0 .09-.023.023-.034.057-.271.034-.237.045-.655.011-.429.034-1.345l.667.057q-.011.78-.023 1.22-.011.429-.045.814-.034.384-.09.542-.045.147-.181.271-.136.113-.26.136-.124.011-.373.011-.508 0-.667-.192-.147-.203-.147-.938v-5.39zm-4.577 3.989q.768-2.102 1.051-5.277l.735.09q-.057.599-.136 1.345h1.751q-.079 3.39-.949 5.673.463 1.085 1.243 1.548.791.452 2.113.452h1.616l-.034.768h-1.718q-1.367 0-2.26-.463-.881-.463-1.379-1.582-.554 1.288-1.627 2.237l-.396-.667q.994-.961 1.593-2.339-.384-1.085-.599-2.746-.124.881-.475 1.616zm14.623-2.78h1.175v-1.492h-1.175zm1.966 2.915v1.356h2.09v.701h-2.09v1.537h2.215v.735h-5.424v-.735h2.418v-1.537h-1.966v-.701h1.966v-1.356h-1.944v-5.119h4.689v5.119zm-.791-.701v-1.559h-1.175v1.559zm.791 0h1.186v-1.559h-1.186zm0-2.215h1.186v-1.492h-1.186zm-2.825 4.69l.09.746q-1.13.678-2.396 1.164l-.102-.757q.644-.237.87-.395v-3.153h-.746v-.768h.746v-2.588h-.825v-.791h2.339v.791h-.723v2.588h.678v.768h-.678v2.836q.282-.226.746-.441zm12.359-1.689v-.859h6.644v.859z"/></g></g></g></svg>
